<svg width="21" height="24" viewBox="0 0 21 24" fill="none" xmlns="http://www.w3.org/2000/svg">
<path d="M19.5143 11.2316L11.1348 20.4216C10.1082 21.5474 8.71589 22.1799 7.26412 22.1799C5.81234 22.1799 4.42003 21.5474 3.39347 20.4216C2.36691 19.2957 1.79019 17.7687 1.79019 16.1766C1.79019 14.5844 2.36691 13.0574 3.39347 11.9316L11.773 2.74156C12.4574 1.991 13.3856 1.56934 14.3535 1.56934C15.3213 1.56934 16.2495 1.991 16.9339 2.74156C17.6183 3.49212 18.0028 4.5101 18.0028 5.57156C18.0028 6.63302 17.6183 7.651 16.9339 8.40156L8.54521 17.5916C8.20303 17.9668 7.73892 18.1777 7.255 18.1777C6.77107 18.1777 6.30697 17.9668 5.96478 17.5916C5.6226 17.2163 5.43036 16.7073 5.43036 16.1766C5.43036 15.6458 5.6226 15.1368 5.96478 14.7616L13.7061 6.28156" stroke="#969696" stroke-width="2" stroke-linecap="round" stroke-linejoin="round"/>
<path d="M19.5143 11.2316L11.1348 20.4216C10.1082 21.5474 8.71589 22.1799 7.26412 22.1799C5.81234 22.1799 4.42003 21.5474 3.39347 20.4216C2.36691 19.2957 1.79019 17.7687 1.79019 16.1766C1.79019 14.5844 2.36691 13.0574 3.39347 11.9316L11.773 2.74156C12.4574 1.991 13.3856 1.56934 14.3535 1.56934C15.3213 1.56934 16.2495 1.991 16.9339 2.74156C17.6183 3.49212 18.0028 4.5101 18.0028 5.57156C18.0028 6.63302 17.6183 7.651 16.9339 8.40156L8.54521 17.5916C8.20303 17.9668 7.73892 18.1777 7.255 18.1777C6.77107 18.1777 6.30697 17.9668 5.96478 17.5916C5.6226 17.2163 5.43036 16.7073 5.43036 16.1766C5.43036 15.6458 5.6226 15.1368 5.96478 14.7616L13.7061 6.28156" stroke="url(#paint0_linear_139_99)" stroke-opacity="0.5" stroke-width="2" stroke-linecap="round" stroke-linejoin="round"/>
<defs>
<linearGradient id="paint0_linear_139_99" x1="-15.934" y1="11.8746" x2="19.5143" y2="11.8746" gradientUnits="userSpaceOnUse">
<stop stop-opacity="0.5"/>
<stop offset="1" stop-opacity="0"/>
</linearGradient>
</defs>
</svg>
