<svg width="22" height="21" viewBox="0 0 22 21" fill="none" xmlns="http://www.w3.org/2000/svg">
<path d="M20.8725 17.2599V17.2554C20.8725 17.2554 16.8724 13.2883 16.8699 13.2864C16.5528 12.9714 16.0456 12.9782 15.7336 13.2885L13.8924 15.1241C13.1765 15.835 12.2535 15.2042 10.4819 13.7699C9.30966 12.8209 7.961 11.5447 6.79163 10.106C5.97099 9.09651 5.2453 8.03642 5.995 7.29226C5.99694 7.29033 7.84381 5.46137 7.84346 5.45944L7.84487 5.45558C8.1763 5.12652 8.14418 4.6224 7.84152 4.32155V4.31699C7.84152 4.31699 3.7258 0.235729 3.72351 0.233276C3.40637 -0.081597 2.89934 -0.0745882 2.58715 0.235379L0.732329 2.07696C-0.0318343 3.02649 -1.73011 7.55194 5.55062 14.9617C13.2205 22.768 18.1697 21.0981 19.0218 20.2173C19.0218 20.2173 20.8746 18.3994 20.8746 18.3976L20.8762 18.394C21.2077 18.0647 21.175 17.5609 20.8725 17.2599Z" fill="white"/>
</svg>
